# xmcd CD database file
#
# Track frame offsets:
#	150
#	13637
#	25820
#	42102
#	57357
#	72737
#	89232
#	99917
#	113515
#	127090
#	142430
#	156805
#	168237
#	177612
#	190817
#	205915
#	221835
#	232592
#	249337
#	260500
#
# Disc length: 3683 seconds
#
# Revision: 2
# Processed by: cddbd v1.5.1PL0 Copyright (c) Steve Scherf et al.
# Submitted via: CDex 1.50beta10
#
DISCID=250e6114
DTITLE=Slim Whitman - 20 Precious Memories (DINO Music)
DYEAR=1900
DGENRE=Country
TTITLE0=He
TTITLE1=I'll Fly Away (with Byron)
TTITLE2=Who at My Door is Standing
TTITLE3=Mansion over the Hilltop
TTITLE4=Suppertime (with Byron)
TTITLE5=Precious Memories
TTITLE6=Under His Wings
TTITLE7=I Know Who Holds Tomorrow
TTITLE8=A Closer Walk With Thee
TTITLE9=How Great thou art
TTITLE10=Beyond The Sunset
TTITLE11=Have Thine Own Way Lord (with byron)
TTITLE12=Camping in Canaan's Land
TTITLE13=Sunrise
TTITLE14=I Will Pilot Thee
TTITLE15=Whispering Hope (with byron)
TTITLE16=He Keeps Me Singing
TTITLE17=Face to Face
TTITLE18=Everybody Needs Someone to Care (with byron)
TTITLE19=God Be With You
EXTD=\n\n\n
EXTT0=
EXTT1=
EXTT2=
EXTT3=
EXTT4=
EXTT5=
EXTT6=
EXTT7=
EXTT8=
EXTT9=
EXTT10=
EXTT11=
EXTT12=
EXTT13=
EXTT14=
EXTT15=
EXTT16=
EXTT17=
EXTT18=
EXTT19=
PLAYORDER=
